<svg xmlns="http://www.w3.org/2000/svg" viewBox="-120 -120 240 240" width="512" height="512">
  <title>Aurafy mark</title>
  <defs>
    <radialGradient id="orbitglow" cx="50%" cy="50%" r="50%">
      <stop offset="0%" stop-color="#22D3EE" stop-opacity="0.15"/>
      <stop offset="100%" stop-color="#22D3EE" stop-opacity="0"/>
    </radialGradient>
    <radialGradient id="eyefill" cx="50%" cy="50%" r="55%">
      <stop offset="0%" stop-color="#67E8F9" stop-opacity="0.7"/>
      <stop offset="40%" stop-color="#22D3EE" stop-opacity="0.35"/>
      <stop offset="100%" stop-color="#0891B2" stop-opacity="0"/>
    </radialGradient>
    <radialGradient id="pupilglow" cx="50%" cy="50%" r="50%">
      <stop offset="0%" stop-color="#D946EF" stop-opacity="0.95"/>
      <stop offset="45%" stop-color="#A855F7" stop-opacity="0.35"/>
      <stop offset="100%" stop-color="#7C3AED" stop-opacity="0"/>
    </radialGradient>
    <radialGradient id="spark" cx="50%" cy="50%" r="50%">
      <stop offset="0%" stop-color="#10B981" stop-opacity="0.92"/>
      <stop offset="100%" stop-color="#10B981" stop-opacity="0"/>
    </radialGradient>
    <radialGradient id="aura" cx="50%" cy="50%" r="50%">
      <stop offset="0%" stop-color="#A855F7" stop-opacity="0.85"/>
      <stop offset="100%" stop-color="#A855F7" stop-opacity="0"/>
    </radialGradient>
  </defs>
  <ellipse rx="86" ry="36" fill="url(#orbitglow)" opacity="0.7" transform="rotate(-42)"/>
  <ellipse rx="86" ry="36" fill="url(#orbitglow)" opacity="0.7" transform="rotate(42)"/>
  <ellipse rx="80" ry="33" fill="none" stroke="#06B6D4" stroke-width="2.2" opacity="0.72" transform="rotate(-42)"/>
  <ellipse rx="80" ry="33" fill="none" stroke="#22D3EE" stroke-width="2.2" opacity="0.92" transform="rotate(42)"/>
  <path d="M -40 0 C -34 -10, -18 -22, 0 -20 C 18 -22, 34 -10, 40 0 C 34 10, 18 22, 0 20 C -18 22, -34 10, -40 0 Z" fill="url(#eyefill)"/>
  <circle r="22" fill="url(#pupilglow)"/>
  <circle r="6.5" fill="#C026D3"/>
  <circle r="1.6" fill="#FFFFFF"/>
  <circle cx="38" cy="-56" r="6.5" fill="url(#aura)"/>
  <circle cx="38" cy="-56" r="2" fill="#A855F7"/>
  <circle cx="-58" cy="-32" r="5.5" fill="url(#aura)"/>
  <circle cx="-58" cy="-32" r="1.7" fill="#A855F7"/>
  <circle cx="-44" cy="50" r="5" fill="url(#aura)"/>
  <circle cx="-44" cy="50" r="1.5" fill="#A855F7"/>
  <circle cx="58" cy="44" r="9" fill="url(#spark)"/>
  <circle cx="58" cy="44" r="3" fill="#10B981"/>
  <circle cx="58" cy="44" r="1" fill="#A7F3D0"/>
</svg>
